<svg id="eIhBFb7wnkv1" xmlns="http://www.w3.org/2000/svg" xmlns:xlink="http://www.w3.org/1999/xlink" viewBox="-63 -32 510 512" shape-rendering="geometricPrecision" text-rendering="geometricPrecision"><style><![CDATA[#eIhBFb7wnkv7_ts {animation: eIhBFb7wnkv7_ts__ts 3000ms linear infinite normal forwards}@keyframes eIhBFb7wnkv7_ts__ts { 0% {transform: translate(270px,162.5px) scale(1,1)} 33.333333% {transform: translate(270px,162.5px) scale(1,1)} 50% {transform: translate(270px,162.5px) scale(1,1)} 66.666667% {transform: translate(270px,162.5px) scale(1,0.1)} 83.333333% {transform: translate(270px,162.5px) scale(1,1)} 100% {transform: translate(270px,162.5px) scale(1,1)}} #eIhBFb7wnkv8_ts {animation: eIhBFb7wnkv8_ts__ts 3000ms linear infinite normal forwards}@keyframes eIhBFb7wnkv8_ts__ts { 0% {transform: translate(174px,162.5px) scale(1,1)} 33.333333% {transform: translate(174px,162.5px) scale(1,1)} 50% {transform: translate(174px,162.5px) scale(1,1)} 66.666667% {transform: translate(174px,162.5px) scale(1,0.1)} 83.333333% {transform: translate(174px,162.5px) scale(1,1)} 100% {transform: translate(174px,162.5px) scale(1,1)}} #eIhBFb7wnkv9_to {animation: eIhBFb7wnkv9_to__to 3000ms linear infinite normal forwards}@keyframes eIhBFb7wnkv9_to__to { 0% {transform: translate(62.5px,62.5px)} 50% {transform: translate(62.5px,70px)} 100% {transform: translate(62.5px,62.5px)}}]]></style><defs><linearGradient id="eIhBFb7wnkv4-fill" x1="195" y1="43" x2="195" y2="400.5" spreadMethod="pad" gradientUnits="userSpaceOnUse" gradientTransform="matrix(1 0 0 1 0 0)"><stop id="eIhBFb7wnkv4-fill-0" offset="0%" stop-color="rgb(3,255,134)"/><stop id="eIhBFb7wnkv4-fill-1" offset="100%" stop-color="rgb(138,255,199)"/></linearGradient></defs><g id="eIhBFb7wnkv2"><g id="eIhBFb7wnkv3"><path id="eIhBFb7wnkv4" d="M45,43L345,43L345,213L215,343L168.5,343L111,400.5L111,343L45,343L45,43Z" clip-rule="evenodd" fill="url(#eIhBFb7wnkv4-fill)" fill-rule="evenodd" stroke="none" stroke-width="1"/><path id="eIhBFb7wnkv5" d="M345,43L359,43L359,29L345,29L345,43ZM45,43L45,29L31,29L31,43L45,43ZM345,213L354.899,222.899L359,218.799L359,213L345,213ZM215,343L215,357L220.799,357L224.899,352.899L215,343ZM168.5,343L168.5,329L162.701,329L158.601,333.101L168.5,343ZM111,400.5L97,400.5L97,434.299L120.899,410.399L111,400.5ZM111,343L125,343L125,329L111,329L111,343ZM45,343L31,343L31,357L45,357L45,343ZM345,29L45,29L45,57L345,57L345,29ZM359,213L359,43L331,43L331,213L359,213ZM224.899,352.899L354.899,222.899L335.101,203.101L205.101,333.101L224.899,352.899ZM168.5,357L215,357L215,329L168.5,329L168.5,357ZM158.601,333.101L101.101,390.601L120.899,410.399L178.399,352.899L158.601,333.101ZM125,400.5L125,343L97,343L97,400.5L125,400.5ZM45,357L111,357L111,329L45,329L45,357ZM31,43L31,343L59,343L59,43L31,43Z" fill="rgb(0,0,0)" stroke="none" stroke-width="1"/></g><g id="eIhBFb7wnkv6"><g id="eIhBFb7wnkv7_ts" transform="translate(270,162.5) scale(1,1)"><rect id="eIhBFb7wnkv7" width="42" height="119" rx="0" ry="0" transform="translate(-21,-59.5)" fill="rgb(0,0,0)" stroke="none" stroke-width="1"/></g><g id="eIhBFb7wnkv8_ts" transform="translate(174,162.5) scale(1,1)"><rect id="eIhBFb7wnkv8" width="42" height="119" rx="0" ry="0" transform="translate(-21,-59.5)" fill="rgb(0,0,0)" stroke="none" stroke-width="1"/></g></g><g id="eIhBFb7wnkv9_to" transform="translate(62.5,62.5)"><g id="eIhBFb7wnkv9" transform="translate(-62.5,-62.5)"><path id="eIhBFb7wnkv10" d="M125,62.5C125,97.0178,97.0178,125,62.5,125C27.9822,125,0,97.0178,0,62.5C0,27.9822,27.9822,0,62.5,0C97.0178,0,125,27.9822,125,62.5Z" fill="rgb(255,73,117)" stroke="none" stroke-width="1"/><g id="eIhBFb7wnkv11"><rect id="eIhBFb7wnkv12" width="25" height="25" rx="5" ry="5" transform="matrix(1 0 0 1 50 87.7241)" fill="rgb(255,255,255)" stroke="none" stroke-width="1"/><rect id="eIhBFb7wnkv13" width="25" height="63.7931" rx="5" ry="5" transform="matrix(1 0 0 1 50 11)" fill="rgb(255,255,255)" stroke="none" stroke-width="1"/></g></g></g></g></svg>
