<?xml version="1.0" encoding="UTF-8"?>
<!-- Created with Inkscape (http://www.inkscape.org/) -->
<svg version="1.1" viewBox="0 0 252.61 258.1" xmlns="http://www.w3.org/2000/svg">
  <g transform="translate(280.13 242.67)">
    <g transform="rotate(-44.858 -163.75 -106.74)" fill="#fdfffe">
      <g fill="#fdfffe">
        <path transform="matrix(.26458 0 0 .26458 499.54 126.49)"
          d="m-2180.5-1165a283.5 283.5 0 0 0-283.5 283.5 283.5 283.5 0 0 0 283.5 283.5 283.5 283.5 0 0 0 283.5-283.5 283.5 283.5 0 0 0-283.5-283.5zm167.5 230.5a53 53 0 0 1 53 53 53 53 0 0 1-53 53 53 53 0 0 1-53-53 53 53 0 0 1 53-53zm-984.04-78.076-119.85 149.91 119.85 144.91 80.728-78.266 86.626 81.852 85.953-81.852 75.735 83.266 81.569-83.266 91.148 83.266 277.44-3e-5v-299.81z"
          fill="#fdfffe" style="paint-order:stroke fill markers" />
      </g>
    </g>
  </g>
</svg>